<svg width="583" height="177" viewBox="0 0 583 177" fill="none" xmlns="http://www.w3.org/2000/svg">
<path d="M67.1633 54.8842C66.3831 55.2302 65.8632 56.1049 65.8632 57.0817C65.8632 58.0585 66.3831 58.9337 67.1633 59.2796L76.9565 63.5935L80.6314 75.0911C80.9261 76.0066 81.6712 76.617 82.5032 76.617C83.3352 76.617 84.0807 76.0066 84.3754 75.0911L88.0499 63.5935L97.8435 59.2796C98.6234 58.9337 99.1433 58.0585 99.1433 57.0817C99.1433 56.1049 98.6234 55.2302 97.8435 54.8842L88.0499 50.5699L84.3754 39.0727C84.0807 38.157 83.3352 37.5465 82.5032 37.5465C81.6712 37.5465 80.9261 38.157 80.6314 39.0727L76.9565 50.5699L67.1633 54.8842ZM45.9473 52.4627C45.4965 51.3027 44.5084 50.5699 43.4339 50.5699C42.3593 50.5699 41.3712 51.3027 40.9205 52.4627L31.7685 75.6606L12.0084 86.3846C11.0204 86.9138 10.3964 88.0738 10.3964 89.3557C10.3964 90.6377 11.0204 91.7773 12.0084 92.3064L31.7858 103.03L40.9031 126.229C41.3539 127.388 42.3419 128.121 43.4165 128.121C44.4911 128.121 45.4791 127.388 45.9299 126.229L55.0645 103.01L74.8418 92.286C75.8298 91.7569 76.454 90.5969 76.454 89.3353C76.454 88.0738 75.8298 86.9138 74.8418 86.3846L55.0819 75.681L45.9473 52.4627ZM76.9565 115.688L67.1633 120.002C66.3831 120.348 65.8632 121.223 65.8632 122.199C65.8632 123.176 66.3831 124.051 67.1633 124.397L76.9565 128.711L80.6314 140.209C80.9261 141.124 81.6712 141.735 82.5032 141.735C83.3352 141.735 84.0807 141.124 84.3754 140.209L88.0499 128.711L97.8435 124.397C98.6234 124.051 99.1433 123.176 99.1433 122.199C99.1433 121.223 98.6234 120.348 97.8435 120.002L88.0499 115.688L84.3754 104.19C84.0807 103.275 83.3352 102.664 82.5032 102.664C81.6712 102.664 80.9261 103.275 80.6314 104.19L76.9565 115.688Z" fill="url(#paint0_linear_3_27)"/>
<g filter="url(#filter0_d_3_27)">
<path d="M53.6351 96.1757C27.1437 106.977 6.9373 120.023 8.5028 125.315C10.0683 130.607 32.8129 126.141 59.3042 115.339C85.7956 104.538 106.002 91.4922 104.437 86.2003C102.871 80.9084 80.1264 85.3745 53.6351 96.1757Z" stroke="url(#paint1_linear_3_27)" stroke-width="0.549291"/>
<g style="mix-blend-mode:screen" filter="url(#filter1_f_3_27)">
<path d="M53.6351 96.1757C27.1437 106.977 6.9373 120.023 8.5028 125.315C10.0683 130.607 32.8129 126.141 59.3042 115.339C85.7956 104.538 106.002 91.4922 104.437 86.2003C102.871 80.9084 80.1264 85.3745 53.6351 96.1757Z" stroke="url(#paint2_linear_3_27)" stroke-width="0.549291"/>
</g>
</g>
<path d="M96.9738 9.08637C97.7314 9.08637 98.3456 8.36529 98.3456 7.4758C98.3456 6.58631 97.7314 5.86523 96.9738 5.86523C96.2161 5.86523 95.6019 6.58631 95.6019 7.4758C95.6019 8.36529 96.2161 9.08637 96.9738 9.08637Z" fill="url(#paint3_linear_3_27)"/>
<path d="M122.146 37.1323C122.465 37.1323 122.724 36.8281 122.724 36.4528C122.724 36.0776 122.465 35.7733 122.146 35.7733C121.826 35.7733 121.567 36.0776 121.567 36.4528C121.567 36.8281 121.826 37.1323 122.146 37.1323Z" fill="url(#paint4_linear_3_27)"/>
<path d="M26.6886 54.234C27.5178 54.234 28.19 53.4449 28.19 52.4714C28.19 51.4979 27.5178 50.7087 26.6886 50.7087C25.8594 50.7087 25.1871 51.4979 25.1871 52.4714C25.1871 53.4449 25.8594 54.234 26.6886 54.234Z" fill="url(#paint5_linear_3_27)"/>
<path d="M11.2239 105.864C12.0531 105.864 12.7254 105.075 12.7254 104.101C12.7254 103.128 12.0531 102.339 11.2239 102.339C10.3947 102.339 9.72247 103.128 9.72247 104.101C9.72247 105.075 10.3947 105.864 11.2239 105.864Z" fill="url(#paint6_linear_3_27)"/>
<path d="M100.121 120.038C100.951 120.038 101.623 119.248 101.623 118.275C101.623 117.301 100.951 116.512 100.121 116.512C99.2921 116.512 98.6199 117.301 98.6199 118.275C98.6199 119.248 99.2921 120.038 100.121 120.038Z" fill="url(#paint7_linear_3_27)"/>
<path d="M29.807 90.1898C30.1266 90.1898 30.3857 89.8855 30.3857 89.5103C30.3857 89.135 30.1266 88.8308 29.807 88.8308C29.4873 88.8308 29.2282 89.135 29.2282 89.5103C29.2282 89.8855 29.4873 90.1898 29.807 90.1898Z" fill="url(#paint8_linear_3_27)"/>
<path d="M51.9813 35.3397C52.4836 35.3397 52.8908 34.8617 52.8908 34.272C52.8908 33.6823 52.4836 33.2043 51.9813 33.2043C51.479 33.2043 51.0718 33.6823 51.0718 34.272C51.0718 34.8617 51.479 35.3397 51.9813 35.3397Z" fill="url(#paint9_linear_3_27)"/>
<path d="M94.7887 60.2629C94.3764 60.1934 94.0821 59.7806 94.0862 59.2675C94.0669 54.6862 93.6221 53.9743 90.0064 52.8655C89.59 52.7336 89.3145 52.2626 89.3737 51.7789C89.4336 51.2888 89.8034 50.9398 90.236 50.9372C93.9616 50.9541 94.4778 50.5065 95.6888 46.1389C95.8238 45.6544 96.1935 45.3536 96.6003 45.4222C97.0181 45.4925 97.3066 45.904 97.314 46.4193C97.3225 50.9919 97.7673 51.7038 101.377 52.8117C101.804 52.9519 102.076 53.4091 102.015 53.9057C101.956 54.3893 101.597 54.7401 101.153 54.7409C97.4205 54.7366 96.9109 55.1785 95.7113 59.5479C95.5642 60.0367 95.1892 60.3302 94.7887 60.2629Z" fill="url(#paint10_linear_3_27)"/>
<path d="M17.7403 83.6211C17.4417 83.674 17.1639 83.4596 17.0755 83.1019C16.2475 79.925 15.8119 79.5395 13.1038 79.6558C12.7912 79.6667 12.5161 79.4066 12.4711 79.0567C12.4255 78.7016 12.6202 78.3687 12.9203 78.2606C15.5106 77.3589 15.7895 76.9218 15.8536 73.5921C15.8613 73.2222 16.0646 72.9227 16.359 72.8706C16.6618 72.8167 16.9354 73.0321 17.0321 73.388C17.8513 76.5614 18.2868 76.9469 20.9908 76.8315C21.3122 76.8241 21.582 77.075 21.6283 77.4349C21.6733 77.7852 21.4868 78.1169 21.1785 78.2258C18.5853 79.1379 18.3099 79.5699 18.254 82.8983C18.2387 83.2742 18.0306 83.5694 17.7403 83.6211Z" fill="url(#paint11_linear_3_27)"/>
<g filter="url(#filter2_d_3_27)">
<path d="M133.405 131V122.04H145.949V50.616H133.405V41.656H169.245V50.616H156.701V122.04H169.245V131H133.405ZM196.815 131V64.952H207.055V75.704H207.567C208.335 73.9973 209.188 72.4187 210.127 70.968C211.151 69.432 212.345 68.1093 213.711 67C215.161 65.8907 216.825 65.0373 218.703 64.44C220.58 63.7573 222.799 63.416 225.359 63.416C229.711 63.416 233.721 64.4827 237.391 66.616C241.06 68.664 243.791 72.0773 245.583 76.856H245.839C247.033 73.272 249.252 70.1573 252.495 67.512C255.823 64.7813 260.303 63.416 265.935 63.416C272.676 63.416 277.924 65.6347 281.679 70.072C285.519 74.424 287.439 80.6107 287.439 88.632V131H277.199V90.424C277.199 84.536 276.047 80.0987 273.743 77.112C271.439 74.1253 267.769 72.632 262.735 72.632C260.687 72.632 258.724 72.888 256.847 73.4C255.055 73.912 253.433 74.68 251.983 75.704C250.532 76.728 249.38 78.0507 248.527 79.672C247.673 81.208 247.247 83.0427 247.247 85.176V131H237.007V90.424C237.007 84.536 235.855 80.0987 233.551 77.112C231.247 74.1253 227.663 72.632 222.799 72.632C220.751 72.632 218.788 72.888 216.911 73.4C215.033 73.912 213.369 74.68 211.919 75.704C210.468 76.728 209.273 78.0507 208.335 79.672C207.481 81.208 207.055 83.0427 207.055 85.176V131H196.815ZM365.525 131C361.685 131 358.911 129.976 357.205 127.928C355.583 125.88 354.559 123.32 354.133 120.248H353.493C352.042 124.344 349.653 127.416 346.325 129.464C342.997 131.512 339.029 132.536 334.421 132.536C327.423 132.536 321.962 130.744 318.037 127.16C314.197 123.576 312.277 118.712 312.277 112.568C312.277 106.339 314.538 101.56 319.061 98.232C323.669 94.904 330.794 93.24 340.437 93.24H353.493V86.712C353.493 82.0187 352.213 78.4347 349.653 75.96C347.093 73.4853 343.167 72.248 337.877 72.248C333.866 72.248 330.495 73.144 327.765 74.936C325.119 76.728 322.901 79.1173 321.109 82.104L314.965 76.344C316.757 72.76 319.615 69.7307 323.541 67.256C327.466 64.696 332.415 63.416 338.389 63.416C346.41 63.416 352.639 65.3787 357.077 69.304C361.514 73.2293 363.733 78.6907 363.733 85.688V122.04H371.285V131H365.525ZM336.085 123.832C338.645 123.832 340.991 123.533 343.125 122.936C345.258 122.339 347.093 121.485 348.629 120.376C350.165 119.267 351.359 117.987 352.213 116.536C353.066 115.085 353.493 113.507 353.493 111.8V100.92H339.925C334.037 100.92 329.727 101.773 326.997 103.48C324.351 105.187 323.029 107.661 323.029 110.904V113.592C323.029 116.835 324.181 119.352 326.485 121.144C328.874 122.936 332.074 123.832 336.085 123.832ZM450.54 138.296C450.54 145.123 447.852 150.115 442.476 153.272C437.185 156.515 429.206 158.136 418.54 158.136C408.214 158.136 400.79 156.728 396.268 153.912C391.745 151.096 389.484 147.085 389.484 141.88C389.484 138.296 390.422 135.48 392.3 133.432C394.177 131.469 396.737 130.019 399.98 129.08V127.672C396.054 125.795 394.092 122.723 394.092 118.456C394.092 115.128 395.158 112.611 397.292 110.904C399.425 109.112 402.156 107.789 405.484 106.936V106.424C401.558 104.547 398.486 101.859 396.268 98.36C394.134 94.8613 393.068 90.808 393.068 86.2C393.068 82.872 393.665 79.8 394.86 76.984C396.054 74.168 397.718 71.7787 399.852 69.816C402.07 67.768 404.673 66.1893 407.66 65.08C410.732 63.9707 414.145 63.416 417.9 63.416C422.593 63.416 426.774 64.2693 430.444 65.976V64.824C430.444 62.264 431.041 60.1733 432.236 58.552C433.43 56.8453 435.393 55.992 438.124 55.992H447.98V64.952H435.436V69.176C437.825 71.224 439.66 73.6987 440.94 76.6C442.305 79.416 442.988 82.616 442.988 86.2C442.988 89.528 442.39 92.6 441.196 95.416C440.001 98.232 438.294 100.664 436.076 102.712C433.942 104.675 431.34 106.211 428.268 107.32C425.196 108.429 421.782 108.984 418.028 108.984C415.894 108.984 413.761 108.771 411.628 108.344C409.409 108.941 407.404 109.837 405.612 111.032C403.82 112.141 402.924 113.72 402.924 115.768C402.924 117.731 403.862 119.053 405.74 119.736C407.617 120.419 410.049 120.76 413.036 120.76H427.116C435.308 120.76 441.238 122.339 444.908 125.496C448.662 128.568 450.54 132.835 450.54 138.296ZM440.94 139.064C440.94 136.419 439.916 134.285 437.868 132.664C435.905 131.128 432.364 130.36 427.244 130.36H405.228C401.132 132.237 399.084 135.224 399.084 139.32C399.084 142.221 400.15 144.696 402.284 146.744C404.502 148.792 408.214 149.816 413.42 149.816H422.892C428.609 149.816 433.046 148.92 436.204 147.128C439.361 145.336 440.94 142.648 440.94 139.064ZM418.028 100.792C422.38 100.792 425.836 99.768 428.396 97.72C430.956 95.5867 432.236 92.344 432.236 87.992V84.408C432.236 80.056 430.956 76.856 428.396 74.808C425.836 72.6747 422.38 71.608 418.028 71.608C413.676 71.608 410.22 72.6747 407.66 74.808C405.1 76.856 403.82 80.056 403.82 84.408V87.992C403.82 92.344 405.1 95.5867 407.66 97.72C410.22 99.768 413.676 100.792 418.028 100.792ZM476.565 49.464C474.346 49.464 472.725 48.952 471.701 47.928C470.762 46.8187 470.293 45.4107 470.293 43.704V42.04C470.293 40.3333 470.762 38.968 471.701 37.944C472.725 36.8347 474.346 36.28 476.565 36.28C478.783 36.28 480.362 36.8347 481.301 37.944C482.325 38.968 482.837 40.3333 482.837 42.04V43.704C482.837 45.4107 482.325 46.8187 481.301 47.928C480.362 48.952 478.783 49.464 476.565 49.464ZM471.445 64.952H481.685V131H471.445V64.952ZM512.405 131V64.952H522.645V75.704H523.157C524.778 71.9493 527.039 68.9627 529.941 66.744C532.927 64.5253 536.895 63.416 541.845 63.416C548.671 63.416 554.047 65.6347 557.973 70.072C561.983 74.424 563.989 80.6107 563.989 88.632V131H553.749V90.424C553.749 78.5627 548.757 72.632 538.773 72.632C536.725 72.632 534.719 72.888 532.757 73.4C530.879 73.912 529.173 74.68 527.637 75.704C526.101 76.728 524.863 78.0507 523.925 79.672C523.071 81.208 522.645 83.0427 522.645 85.176V131H512.405Z" fill="url(#paint12_linear_3_27)" shape-rendering="crispEdges"/>
</g>
<defs>
<filter id="filter0_d_3_27" x="6.51483" y="82.3818" width="99.9097" height="47.4062" filterUnits="userSpaceOnUse" color-interpolation-filters="sRGB">
<feFlood flood-opacity="0" result="BackgroundImageFix"/>
<feColorMatrix in="SourceAlpha" type="matrix" values="0 0 0 0 0 0 0 0 0 0 0 0 0 0 0 0 0 0 127 0" result="hardAlpha"/>
<feOffset dy="0.327344"/>
<feGaussianBlur stdDeviation="0.818361"/>
<feComposite in2="hardAlpha" operator="out"/>
<feColorMatrix type="matrix" values="0 0 0 0 0 0 0 0 0 0 0 0 0 0 0 0 0 0 0.45 0"/>
<feBlend mode="normal" in2="BackgroundImageFix" result="effect1_dropShadow_3_27"/>
<feBlend mode="normal" in="SourceGraphic" in2="effect1_dropShadow_3_27" result="shape"/>
</filter>
<filter id="filter1_f_3_27" x="7.89716" y="83.4368" width="97.145" height="44.6415" filterUnits="userSpaceOnUse" color-interpolation-filters="sRGB">
<feFlood flood-opacity="0" result="BackgroundImageFix"/>
<feBlend mode="normal" in="SourceGraphic" in2="BackgroundImageFix" result="shape"/>
<feGaussianBlur stdDeviation="0.127195" result="effect1_foregroundBlur_3_27"/>
</filter>
<filter id="filter2_d_3_27" x="129.405" y="36.28" width="438.584" height="131.856" filterUnits="userSpaceOnUse" color-interpolation-filters="sRGB">
<feFlood flood-opacity="0" result="BackgroundImageFix"/>
<feColorMatrix in="SourceAlpha" type="matrix" values="0 0 0 0 0 0 0 0 0 0 0 0 0 0 0 0 0 0 127 0" result="hardAlpha"/>
<feOffset dy="6"/>
<feGaussianBlur stdDeviation="2"/>
<feComposite in2="hardAlpha" operator="out"/>
<feColorMatrix type="matrix" values="0 0 0 0 0 0 0 0 0 0 0 0 0 0 0 0 0 0 0.25 0"/>
<feBlend mode="normal" in2="BackgroundImageFix" result="effect1_dropShadow_3_27"/>
<feBlend mode="normal" in="SourceGraphic" in2="effect1_dropShadow_3_27" result="shape"/>
</filter>
<linearGradient id="paint0_linear_3_27" x1="13.026" y1="84.2514" x2="101.265" y2="85.8296" gradientUnits="userSpaceOnUse">
<stop stop-color="#5F2FE9"/>
<stop offset="1" stop-color="#6C1AD6"/>
</linearGradient>
<linearGradient id="paint1_linear_3_27" x1="10.0416" y1="132.562" x2="5.15705" y2="120.356" gradientUnits="userSpaceOnUse">
<stop stop-color="#3F5FFF"/>
<stop offset="1" stop-color="#3F5FFF" stop-opacity="0"/>
</linearGradient>
<linearGradient id="paint2_linear_3_27" x1="10.0416" y1="132.562" x2="5.15705" y2="120.356" gradientUnits="userSpaceOnUse">
<stop stop-color="#6C1AD6"/>
<stop offset="1" stop-color="#199FFF" stop-opacity="0.13"/>
</linearGradient>
<linearGradient id="paint3_linear_3_27" x1="95.6832" y1="7.30919" x2="98.4113" y2="7.35798" gradientUnits="userSpaceOnUse">
<stop stop-color="#5F2FE9"/>
<stop offset="1" stop-color="#6C1AD6"/>
</linearGradient>
<linearGradient id="paint4_linear_3_27" x1="121.601" y1="36.3825" x2="122.752" y2="36.4031" gradientUnits="userSpaceOnUse">
<stop stop-color="#5F2FE9"/>
<stop offset="1" stop-color="#6C1AD6"/>
</linearGradient>
<linearGradient id="paint5_linear_3_27" x1="25.2761" y1="52.289" x2="28.2618" y2="52.3424" gradientUnits="userSpaceOnUse">
<stop stop-color="#5F2FE9"/>
<stop offset="1" stop-color="#6C1AD6"/>
</linearGradient>
<linearGradient id="paint6_linear_3_27" x1="9.81145" y1="103.919" x2="12.7972" y2="103.972" gradientUnits="userSpaceOnUse">
<stop stop-color="#5F2FE9"/>
<stop offset="1" stop-color="#6C1AD6"/>
</linearGradient>
<linearGradient id="paint7_linear_3_27" x1="98.7089" y1="118.093" x2="101.695" y2="118.146" gradientUnits="userSpaceOnUse">
<stop stop-color="#5F2FE9"/>
<stop offset="1" stop-color="#6C1AD6"/>
</linearGradient>
<linearGradient id="paint8_linear_3_27" x1="29.2625" y1="89.44" x2="30.4134" y2="89.4606" gradientUnits="userSpaceOnUse">
<stop stop-color="#5F2FE9"/>
<stop offset="1" stop-color="#6C1AD6"/>
</linearGradient>
<linearGradient id="paint9_linear_3_27" x1="51.1257" y1="34.1615" x2="52.9343" y2="34.1939" gradientUnits="userSpaceOnUse">
<stop stop-color="#5F2FE9"/>
<stop offset="1" stop-color="#6C1AD6"/>
</linearGradient>
<linearGradient id="paint10_linear_3_27" x1="89.7408" y1="52.0738" x2="102.326" y2="52.2989" gradientUnits="userSpaceOnUse">
<stop stop-color="#5F2FE9"/>
<stop offset="1" stop-color="#6C1AD6"/>
</linearGradient>
<linearGradient id="paint11_linear_3_27" x1="12.7362" y1="77.6888" x2="21.8542" y2="77.8519" gradientUnits="userSpaceOnUse">
<stop stop-color="#5F2FE9"/>
<stop offset="1" stop-color="#6C1AD6"/>
</linearGradient>
<linearGradient id="paint12_linear_3_27" x1="354.225" y1="0" x2="354.225" y2="177" gradientUnits="userSpaceOnUse">
<stop stop-color="#5F2FE9" stop-opacity="0.73"/>
<stop offset="1" stop-color="#5F2FE9"/>
</linearGradient>
</defs>
</svg>
